<svg width="60" height="60" viewBox="0 0 60 60" fill="none" xmlns="http://www.w3.org/2000/svg">
<mask id="mask0_1_1223" style="mask-type:alpha" maskUnits="userSpaceOnUse" x="0" y="0" width="60" height="60">
<rect width="60" height="60" fill="#D9D9D9"/>
</mask>
<g mask="url(#mask0_1_1223)">
<path d="M16.2504 42.5008V22.5008H18.7504V42.5008H16.2504ZM28.7504 42.5008V22.5008H31.2504V42.5008H28.7504ZM8.84668 17.5008V15.3852L30.0004 5.28955L51.1542 15.3852V17.5008H8.84668ZM15.4667 15.0008H44.5342L30.0004 8.1258L15.4667 15.0008ZM8.84668 50.0008V47.5008H36.6161C36.6352 47.9591 36.6752 48.3862 36.7361 48.7821C36.7969 49.1779 36.8721 49.5841 36.9617 50.0008H8.84668ZM41.2504 35.6739V22.5008H43.7504V34.4239L41.2504 35.6739ZM50.0004 58.0777C47.5421 57.4656 45.5173 56.0658 43.9261 53.8783C42.3348 51.6908 41.5392 49.2541 41.5392 46.5683V41.1545L50.0004 36.9239L58.4617 41.1545V46.5683C58.4617 49.2541 57.6661 51.6908 56.0748 53.8783C54.4836 56.0658 52.4588 57.4656 50.0004 58.0777ZM48.1879 51.4433L55.7698 43.8758L54.2023 42.3083L48.1879 48.2939L45.7504 45.8564L44.1829 47.4383L48.1879 51.4433Z" fill="#0166CC"/>
</g>
</svg>
