<svg width="60" height="60" viewBox="0 0 60 60" fill="none" xmlns="http://www.w3.org/2000/svg">
<mask id="mask0_1_1212" style="mask-type:alpha" maskUnits="userSpaceOnUse" x="0" y="0" width="60" height="60">
<rect width="60" height="60" fill="#D9D9D9"/>
</mask>
<g mask="url(#mask0_1_1212)">
<path d="M10 22.0194H50V16.5387C50 16.1537 49.8398 15.801 49.5194 15.4806C49.199 15.1602 48.8463 15 48.4613 15H11.5388C11.1537 15 10.801 15.1602 10.4806 15.4806C10.1602 15.801 10 16.1537 10 16.5387V22.0194ZM7.5 16.5387C7.5 15.3879 7.88542 14.4271 8.65625 13.6562C9.42708 12.8854 10.3879 12.5 11.5388 12.5H48.4613C49.6121 12.5 50.5729 12.8854 51.3438 13.6562C52.1146 14.4271 52.5 15.3879 52.5 16.5387V27.9806H10V43.4613C10 43.8463 10.1602 44.199 10.4806 44.5194C10.801 44.8398 11.1537 45 11.5388 45H23.1825V47.5H11.5388C10.3879 47.5 9.42708 47.1146 8.65625 46.3438C7.88542 45.5729 7.5 44.6121 7.5 43.4613V16.5387ZM36.6056 51.3462L27.7113 42.4519L29.4806 40.6825L36.6056 47.7788L50.8269 33.5575L52.5963 35.3556L36.6056 51.3462ZM10 16.5387V43.4613C10 43.8463 10.1602 44.199 10.4806 44.5194C10.801 44.8398 11.1537 45 11.5388 45H10V33.6056V40.7162V15H11.5388C11.1537 15 10.801 15.1602 10.4806 15.4806C10.1602 15.801 10 16.1537 10 16.5387Z" fill="#0166CC"/>
</g>
</svg>
