<svg width="60" height="60" viewBox="0 0 60 60" fill="none" xmlns="http://www.w3.org/2000/svg">
<mask id="mask0_1544_5329" style="mask-type:alpha" maskUnits="userSpaceOnUse" x="0" y="0" width="60" height="60">
<rect width="60" height="60" fill="#D9D9D9"/>
</mask>
<g mask="url(#mask0_1544_5329)">
<path d="M20.11 44.7113H27.0331V42.7887H22.0331V39.7113H27.0331V32.7888H20.11V34.7113H25.11V37.7888H20.11V44.7113ZM37.9944 44.7113H39.9175V32.7888H37.9944V37.7888H34.9175V32.7888H32.9944V39.7113H37.9944V44.7113ZM51.2638 27.2406V47.2113C51.2638 48.3621 50.8783 49.3229 50.1075 50.0938C49.3367 50.8646 48.3761 51.25 47.2256 51.25H12.8025C11.6517 51.25 10.6908 50.8646 9.92001 50.0938C9.14918 49.3229 8.76376 48.3621 8.76376 47.2113V27.1444C7.70918 26.3656 6.93751 25.3448 6.44876 24.0819C5.96001 22.819 5.9496 21.4713 6.41751 20.0387L8.85064 12.0194C9.18397 11.0002 9.72147 10.2004 10.4631 9.62C11.2052 9.04 12.1227 8.75 13.2156 8.75H46.7156C47.8086 8.75 48.7236 9.02167 49.4606 9.565C50.1981 10.1083 50.7383 10.8944 51.0813 11.9231L53.61 20.0387C54.0779 21.4713 54.0675 22.8302 53.5788 24.1156C53.09 25.4006 52.3183 26.4423 51.2638 27.2406ZM35.5138 26.25C37.1196 26.25 38.3184 25.8004 39.11 24.9012C39.9017 24.0025 40.235 23.074 40.11 22.1156L38.4463 11.25H31.2638V21.75C31.2638 22.9775 31.6836 24.0344 32.5231 24.9206C33.3631 25.8069 34.36 26.25 35.5138 26.25ZM24.2638 26.25C25.6067 26.25 26.6925 25.8069 27.5213 24.9206C28.3496 24.0344 28.7638 22.9775 28.7638 21.75V11.25H21.5813L19.9175 22.3075C19.815 23.0833 20.154 23.9344 20.9344 24.8606C21.7148 25.7869 22.8246 26.25 24.2638 26.25ZM13.1388 26.25C14.2413 26.25 15.1779 25.875 15.9488 25.125C16.7196 24.375 17.1996 23.4392 17.3888 22.3175L18.9563 11.25H13.2156C12.6706 11.25 12.2379 11.3702 11.9175 11.6106C11.5971 11.851 11.3567 12.2117 11.1963 12.6925L8.88876 20.5863C8.47835 21.9004 8.65376 23.1729 9.41501 24.4038C10.1763 25.6346 11.4175 26.25 13.1388 26.25ZM46.8888 26.25C48.3854 26.25 49.5811 25.6667 50.4756 24.5C51.3698 23.3333 51.5908 22.0288 51.1388 20.5863L48.7063 12.5962C48.5458 12.1154 48.3054 11.7708 47.985 11.5625C47.6646 11.3542 47.2319 11.25 46.6869 11.25H41.0713L42.6388 22.3175C42.8279 23.4392 43.3079 24.375 44.0788 25.125C44.8496 25.875 45.7863 26.25 46.8888 26.25ZM12.8025 48.75H47.2256C47.674 48.75 48.0425 48.6058 48.3313 48.3175C48.6196 48.0288 48.7638 47.66 48.7638 47.2113V28.4325C48.4271 28.5479 48.1073 28.6298 47.8044 28.6781C47.5019 28.726 47.1967 28.75 46.8888 28.75C45.7638 28.75 44.7742 28.5304 43.92 28.0912C43.0658 27.6521 42.2542 26.9519 41.485 25.9906C40.8313 26.8044 40.0252 27.4677 39.0669 27.9806C38.1086 28.4935 36.9434 28.75 35.5713 28.75C34.5746 28.75 33.6267 28.5177 32.7275 28.0531C31.8288 27.5881 30.9242 26.9006 30.0138 25.9906C29.1771 26.9006 28.25 27.5881 27.2325 28.0531C26.215 28.5177 25.2446 28.75 24.3213 28.75C23.2733 28.75 22.2519 28.5496 21.2569 28.1488C20.2615 27.7483 19.3888 27.029 18.6388 25.9906C17.4113 27.2181 16.3383 27.9848 15.42 28.2906C14.5017 28.5969 13.7413 28.75 13.1388 28.75C12.8313 28.75 12.5213 28.726 12.2088 28.6781C11.8963 28.6298 11.5813 28.5479 11.2638 28.4325V47.2113C11.2638 47.66 11.4079 48.0288 11.6963 48.3175C11.985 48.6058 12.3538 48.75 12.8025 48.75Z" fill="#0166CC"/>
</g>
</svg>
