<svg width="60" height="60" viewBox="0 0 60 60" fill="none" xmlns="http://www.w3.org/2000/svg">
<mask id="mask0_1544_5321" style="mask-type:alpha" maskUnits="userSpaceOnUse" x="0" y="0" width="60" height="60">
<rect width="60" height="60" fill="#D9D9D9"/>
</mask>
<g mask="url(#mask0_1544_5321)">
<path d="M12.5 50V14.0387C12.5 12.8879 12.8854 11.9271 13.6562 11.1562C14.4271 10.3854 15.3879 10 16.5387 10H28.4613C29.6121 10 30.5729 10.3854 31.3438 11.1562C32.1146 11.9271 32.5 12.8879 32.5 14.0387V29.0387H34.8075C35.9183 29.0387 36.8692 29.4342 37.66 30.225C38.4508 31.0158 38.8462 31.9665 38.8462 33.0769V44.5194C38.8462 45.4198 39.1658 46.1898 39.805 46.8294C40.4446 47.469 41.2148 47.7887 42.1156 47.7887C43.016 47.7887 43.786 47.469 44.4256 46.8294C45.0648 46.1898 45.3844 45.4198 45.3844 44.5194V27.4806C45.0094 27.721 44.6135 27.8967 44.1969 28.0075C43.7802 28.1179 43.3427 28.1731 42.8844 28.1731C41.5652 28.1731 40.4502 27.7177 39.5394 26.8069C38.6285 25.896 38.1731 24.7808 38.1731 23.4613C38.1731 22.3204 38.5138 21.315 39.195 20.445C39.8758 19.5746 40.7723 19.0383 41.8844 18.8363L35.8656 12.8175L37.4325 11.25L46.0094 19.7694C46.5065 20.266 46.8952 20.8365 47.1756 21.4806C47.456 22.1248 47.5962 22.785 47.5962 23.4613V44.5194C47.5962 46.054 47.0673 47.351 46.0094 48.4106C44.9519 49.4702 43.6571 50 42.125 50C40.5929 50 39.2948 49.4702 38.2306 48.4106C37.1665 47.351 36.6344 46.054 36.6344 44.5194V32.7888C36.6344 32.34 36.4902 31.9713 36.2019 31.6825C35.9135 31.3942 35.545 31.25 35.0962 31.25H32.5V50H12.5ZM15 26.25H30V14.0387C30 13.6537 29.8398 13.301 29.5194 12.9806C29.199 12.6602 28.8463 12.5 28.4613 12.5H16.5387C16.1537 12.5 15.801 12.6602 15.4806 12.9806C15.1602 13.301 15 13.6537 15 14.0387V26.25ZM42.8844 25.9613C43.5927 25.9613 44.1865 25.7217 44.6656 25.2425C45.1448 24.7633 45.3844 24.1696 45.3844 23.4613C45.3844 22.7529 45.1448 22.1592 44.6656 21.68C44.1865 21.2008 43.5927 20.9613 42.8844 20.9613C42.176 20.9613 41.5823 21.2008 41.1031 21.68C40.624 22.1592 40.3844 22.7529 40.3844 23.4613C40.3844 24.1696 40.624 24.7633 41.1031 25.2425C41.5823 25.7217 42.176 25.9613 42.8844 25.9613ZM15 47.5H30V28.75H15V47.5Z" fill="#0166CC"/>
</g>
</svg>
