<svg width="60" height="60" viewBox="0 0 60 60" fill="none" xmlns="http://www.w3.org/2000/svg">
<mask id="mask0_1544_5280" style="mask-type:alpha" maskUnits="userSpaceOnUse" x="0" y="0" width="60" height="60">
<rect width="60" height="60" fill="#D9D9D9"/>
</mask>
<g mask="url(#mask0_1544_5280)">
<path d="M9.59109 45.8812C8.32526 44.61 7.69234 43.0662 7.69234 41.25H4.23047V16.5387C4.23047 15.3879 4.61589 14.4271 5.38672 13.6562C6.15755 12.8854 7.11839 12.5 8.26922 12.5H41.3461V21.5387H47.1155L55.7692 33.1731V41.25H51.7305C51.7305 43.0662 51.0938 44.61 49.8205 45.8812C48.5467 47.1529 47.0003 47.7887 45.1811 47.7887C43.3615 47.7887 41.8188 47.1529 40.553 45.8812C39.2867 44.61 38.6536 43.0662 38.6536 41.25H20.7692C20.7692 43.0771 20.1323 44.6235 18.8586 45.8894C17.5853 47.1556 16.0388 47.7887 14.2192 47.7887C12.4001 47.7887 10.8573 47.1529 9.59109 45.8812ZM17.0936 44.1131C17.8773 43.3294 18.2692 42.375 18.2692 41.25C18.2692 40.125 17.8773 39.1706 17.0936 38.3869C16.3098 37.6031 15.3555 37.2113 14.2305 37.2113C13.1055 37.2113 12.1511 37.6031 11.3673 38.3869C10.584 39.1706 10.1923 40.125 10.1923 41.25C10.1923 42.375 10.584 43.3294 11.3673 44.1131C12.1511 44.8969 13.1055 45.2887 14.2305 45.2887C15.3555 45.2887 16.3098 44.8969 17.0936 44.1131ZM6.73047 38.75H8.34609C8.70193 37.6475 9.4263 36.6987 10.5192 35.9037C11.6121 35.1087 12.8492 34.7113 14.2305 34.7113C15.548 34.7113 16.7692 35.1008 17.8942 35.88C19.0192 36.6588 19.7596 37.6154 20.1155 38.75H38.8461V15H8.26922C7.88463 15 7.53193 15.1602 7.21109 15.4806C6.89068 15.801 6.73047 16.1537 6.73047 16.5387V38.75ZM48.0548 44.1131C48.8386 43.3294 49.2305 42.375 49.2305 41.25C49.2305 40.125 48.8386 39.1706 48.0548 38.3869C47.2715 37.6031 46.3173 37.2113 45.1923 37.2113C44.0673 37.2113 43.113 37.6031 42.3292 38.3869C41.5455 39.1706 41.1536 40.125 41.1536 41.25C41.1536 42.375 41.5455 43.3294 42.3292 44.1131C43.113 44.8969 44.0673 45.2887 45.1923 45.2887C46.3173 45.2887 47.2715 44.8969 48.0548 44.1131ZM41.3461 33.75H53.1248L45.7692 24.0387H41.3461V33.75Z" fill="#0166CC"/>
</g>
</svg>
