<svg width="60" height="60" viewBox="0 0 60 60" fill="none" xmlns="http://www.w3.org/2000/svg">
<mask id="mask0_1544_5272" style="mask-type:alpha" maskUnits="userSpaceOnUse" x="0" y="0" width="60" height="60">
<rect width="60" height="60" fill="#D9D9D9"/>
</mask>
<g mask="url(#mask0_1544_5272)">
<path d="M12.5957 50.3844V17.8844H23.7495V9.71125L29.9995 3.75L36.2495 9.71125V27.8844H47.4032V50.3844H12.5957ZM15.0957 47.8844H22.5957V40.3844H15.0957V47.8844ZM15.0957 37.8844H22.5957V30.3844H15.0957V37.8844ZM15.0957 27.8844H22.5957V20.3844H15.0957V27.8844ZM26.2495 47.8844H33.7495V40.3844H26.2495V47.8844ZM26.2495 37.8844H33.7495V30.3844H26.2495V37.8844ZM26.2495 27.8844H33.7495V20.3844H26.2495V27.8844ZM26.2495 17.8844H33.7495V10.3844H26.2495V17.8844ZM37.4032 47.8844H44.9032V40.3844H37.4032V47.8844ZM37.4032 37.8844H44.9032V30.3844H37.4032V37.8844Z" fill="#0166CC"/>
</g>
</svg>
