<svg width="60" height="60" viewBox="0 0 60 60" fill="none" xmlns="http://www.w3.org/2000/svg">
<mask id="mask0_1544_5313" style="mask-type:alpha" maskUnits="userSpaceOnUse" x="0" y="0" width="60" height="60">
<rect width="60" height="60" fill="#D9D9D9"/>
</mask>
<g mask="url(#mask0_1544_5313)">
<path d="M24.6925 26.2696C23.2308 24.8079 22.5 23.0385 22.5 20.9614C22.5 18.8848 23.2308 17.1156 24.6925 15.6539C26.1537 14.1923 27.9229 13.4614 30 13.4614C32.0771 13.4614 33.8463 14.1923 35.3075 15.6539C36.7692 17.1156 37.5 18.8848 37.5 20.9614C37.5 23.0385 36.7692 24.8079 35.3075 26.2696C33.8463 27.7308 32.0771 28.4614 30 28.4614C27.9229 28.4614 26.1537 27.7308 24.6925 26.2696ZM12.5 46.5389V42.4233C12.5 41.3658 12.806 40.3939 13.4181 39.5077C14.0302 38.6214 14.8331 37.9298 15.8269 37.4327C18.0706 36.3752 20.379 35.5452 22.7519 34.9427C25.1248 34.3402 27.544 34.0389 30.0094 34.0389C32.4744 34.0389 34.8904 34.3402 37.2575 34.9427C39.6242 35.5452 41.9294 36.3752 44.1731 37.4327C45.1669 37.9298 45.9698 38.6214 46.5819 39.5077C47.194 40.3939 47.5 41.3658 47.5 42.4233V46.5389H12.5ZM33.5312 24.4927C34.5104 23.5135 35 22.3364 35 20.9614C35 19.5864 34.5104 18.4093 33.5312 17.4302C32.5521 16.451 31.375 15.9614 30 15.9614C28.625 15.9614 27.4479 16.451 26.4688 17.4302C25.4896 18.4093 25 19.5864 25 20.9614C25 22.3364 25.4896 23.5135 26.4688 24.4927C27.4479 25.4718 28.625 25.9614 30 25.9614C31.375 25.9614 32.5521 25.4718 33.5312 24.4927ZM38.5575 37.8558V44.0389H45V42.4233C45 41.8046 44.7996 41.2598 44.3988 40.7889C43.9983 40.3177 43.5256 39.9298 42.9806 39.6252C42.2694 39.2598 41.5427 38.9337 40.8006 38.6471C40.0585 38.36 39.3108 38.0962 38.5575 37.8558ZM23.9425 37.2164V40.2889H36.0575V37.2164C35.0642 36.9856 34.0585 36.815 33.0406 36.7045C32.0231 36.5941 31.0056 36.5389 29.9881 36.5389C28.9702 36.5389 27.9565 36.5941 26.9469 36.7045C25.9373 36.815 24.9358 36.9856 23.9425 37.2164ZM15 44.0389H21.4425V37.8558C20.6892 38.0962 19.9415 38.36 19.1994 38.6471C18.4573 38.9337 17.7306 39.2598 17.0194 39.6252C16.4744 39.9298 16.0017 40.3177 15.6012 40.7889C15.2004 41.2598 15 41.8046 15 42.4233V44.0389Z" fill="#0166CC"/>
</g>
</svg>
