<svg width="60" height="60" viewBox="0 0 60 60" fill="none" xmlns="http://www.w3.org/2000/svg">
<mask id="mask0_1544_5305" style="mask-type:alpha" maskUnits="userSpaceOnUse" x="0" y="0" width="60" height="60">
<rect width="60" height="60" fill="#D9D9D9"/>
</mask>
<g mask="url(#mask0_1544_5305)">
<path d="M21.5625 50C18.3508 50 15.6208 48.8758 13.3725 46.6275C11.1242 44.3792 10 41.6492 10 38.4375C10 36.8829 10.2981 35.3958 10.8944 33.9762C11.4906 32.5562 12.3271 31.3077 13.4038 30.2306L30.2306 13.4038C31.3077 12.3271 32.5562 11.4906 33.9762 10.8944C35.3958 10.2981 36.8829 10 38.4375 10C41.6492 10 44.3792 11.1242 46.6275 13.3725C48.8758 15.6208 50 18.3508 50 21.5625C50 23.1171 49.7019 24.6042 49.1056 26.0238C48.5094 27.4438 47.6729 28.6923 46.5962 29.7694L29.7694 46.5962C28.6923 47.6729 27.4438 48.5094 26.0238 49.1056C24.6042 49.7019 23.1171 50 21.5625 50ZM37.3219 35.4906L44.875 28C45.7083 27.1667 46.3542 26.1875 46.8125 25.0625C47.2708 23.9375 47.5 22.7708 47.5 21.5625C47.5 19.0625 46.6146 16.9271 44.8438 15.1562C43.0729 13.3854 40.9375 12.5 38.4375 12.5C37.2292 12.5 36.0625 12.7292 34.9375 13.1875C33.8125 13.6458 32.8333 14.2917 32 15.125L24.5094 22.6781L37.3219 35.4906ZM21.5625 47.5C22.7708 47.5 23.9375 47.2708 25.0625 46.8125C26.1875 46.3542 27.1667 45.7083 28 44.875L35.4906 37.3219L22.6781 24.5094L15.125 32C14.2917 32.8333 13.6458 33.8125 13.1875 34.9375C12.7292 36.0625 12.5 37.2292 12.5 38.4375C12.5 40.9375 13.3854 43.0729 15.1562 44.8438C16.9271 46.6146 19.0625 47.5 21.5625 47.5Z" fill="#0166CC"/>
</g>
</svg>
