<svg width="60" height="60" viewBox="0 0 60 60" fill="none" xmlns="http://www.w3.org/2000/svg">
<mask id="mask0_1544_5337" style="mask-type:alpha" maskUnits="userSpaceOnUse" x="0" y="0" width="60" height="60">
<rect width="60" height="60" fill="#D9D9D9"/>
</mask>
<g mask="url(#mask0_1544_5337)">
<path d="M11.9102 48.6539V44.6158H19.4677L12.9964 23.4521C11.9035 22.9233 11.0327 22.1668 10.3839 21.1827C9.73474 20.1989 9.41016 19.0677 9.41016 17.7889C9.41016 16.0581 10.0191 14.5837 11.237 13.3658C12.4549 12.1479 13.9293 11.5389 15.6602 11.5389C17.1889 11.5389 18.5006 12.0077 19.5952 12.9452C20.6897 13.8827 21.4229 15.0806 21.7945 16.5389H30.9483V12.7889C30.9483 12.4331 31.0677 12.1358 31.3064 11.8971C31.5456 11.6583 31.8429 11.5389 32.1983 11.5389C32.4775 11.5389 32.7218 11.6223 32.9314 11.7889C33.1414 11.9556 33.2754 12.1735 33.3333 12.4427V13.1158L37.8714 8.9233C38.2143 8.58039 38.5983 8.37289 39.0233 8.3008C39.4479 8.22872 39.862 8.30164 40.2658 8.51955L49.7277 12.9233C50.0352 13.0771 50.2666 13.2975 50.422 13.5846C50.5774 13.8712 50.5831 14.1635 50.4389 14.4614C50.2852 14.7693 50.0647 14.9641 49.7777 15.0458C49.491 15.1275 49.1985 15.0962 48.9002 14.9521L39.4195 10.5389L33.4483 16.0389V19.5389L39.4195 24.9139L48.9002 20.5002C49.1985 20.356 49.4935 20.3273 49.7852 20.4139C50.0768 20.5002 50.2947 20.6925 50.4389 20.9908C50.5927 21.2983 50.5895 21.5931 50.4295 21.8752C50.2691 22.1573 50.0352 22.3752 49.7277 22.5289L40.2658 26.9614C39.862 27.1798 39.4479 27.2448 39.0233 27.1564C38.5983 27.0681 38.2143 26.8685 37.8714 26.5577L33.3333 22.4614V23.1346C33.2754 23.3846 33.1414 23.5977 32.9314 23.7739C32.7218 23.9506 32.4775 24.0389 32.1983 24.0389C31.8429 24.0389 31.5456 23.9193 31.3064 23.6802C31.0677 23.4414 30.9483 23.1443 30.9483 22.7889V19.0389H21.7945C21.6695 19.5964 21.462 20.1491 21.172 20.6971C20.882 21.2454 20.5639 21.7023 20.2177 22.0677L32.3333 44.6158H41.9102V48.6539H11.9102ZM18.3064 20.4352C19.0422 19.6998 19.4102 18.8177 19.4102 17.7889C19.4102 16.7598 19.0422 15.8775 18.3064 15.1421C17.571 14.4066 16.6889 14.0389 15.6602 14.0389C14.6314 14.0389 13.7491 14.4066 13.0133 15.1421C12.2779 15.8775 11.9102 16.7598 11.9102 17.7889C11.9102 18.8177 12.2779 19.6998 13.0133 20.4352C13.7491 21.171 14.6314 21.5389 15.6602 21.5389C16.6889 21.5389 17.571 21.171 18.3064 20.4352ZM22.0927 44.6158H29.4677L18.1408 23.5577C17.8845 23.7181 17.5224 23.8543 17.0545 23.9664C16.5866 24.0785 16.1602 24.1027 15.7752 24.0389L22.0927 44.6158Z" fill="#0166CC"/>
</g>
</svg>
