<svg width="60" height="60" viewBox="0 0 60 60" fill="none" xmlns="http://www.w3.org/2000/svg">
<mask id="mask0_1_1201" style="mask-type:alpha" maskUnits="userSpaceOnUse" x="0" y="0" width="60" height="60">
<rect width="60" height="60" fill="#D9D9D9"/>
</mask>
<g mask="url(#mask0_1_1201)">
<path d="M47.5001 36.923V19.423L33.7502 9.8074L20.0001 19.423V26.1537H17.5001V18.2211L33.7502 6.63428L50.0001 18.2211V36.923H47.5001ZM35.2408 21.1055H37.2595V19.0862H35.2408V21.1055ZM30.2408 21.1055H32.2595V19.0862H30.2408V21.1055ZM35.2408 26.1055H37.2595V24.0861H35.2408V26.1055ZM30.2408 26.1055H32.2595V24.0861H30.2408V26.1055ZM16.0095 46.6343L34.9233 52.1536L49.8945 47.5286C49.8462 46.7691 49.6193 46.2218 49.2139 45.8868C48.8081 45.5518 48.3489 45.3843 47.8364 45.3843H35.9751C34.9181 45.3843 33.9601 45.3426 33.1014 45.2593C32.2422 45.1759 31.3622 44.9774 30.4614 44.6636L24.9858 42.8699L25.832 40.3986L30.8945 42.2305C31.6991 42.5351 32.6124 42.7178 33.6345 42.7786C34.657 42.8395 36.0576 42.8747 37.8364 42.8843C37.8364 42.1055 37.6931 41.4757 37.4064 40.9949C37.1197 40.5141 36.7087 40.1793 36.1733 39.9905L21.7889 34.7111C21.6926 34.6795 21.6043 34.6555 21.5239 34.6393C21.4439 34.6234 21.3558 34.6155 21.2595 34.6155H16.0095V46.6343ZM6.00952 52.4999V32.1155H21.2033C21.4366 32.1155 21.6766 32.1418 21.9233 32.1943C22.1699 32.2472 22.3991 32.3091 22.6108 32.3799L37.0576 37.673C37.9518 38.0126 38.7218 38.6232 39.3676 39.5049C40.0135 40.3861 40.3364 41.5126 40.3364 42.8843H47.8364C49.3431 42.8843 50.497 43.3555 51.2983 44.298C52.0995 45.2401 52.5001 46.4355 52.5001 47.8843V49.423L35.0483 54.8074L16.0095 49.2593V52.4999H6.00952ZM8.50952 49.9999H13.5095V34.6155H8.50952V49.9999Z" fill="#0166CC"/>
</g>
</svg>
