<svg width="60" height="60" viewBox="0 0 60 60" fill="none" xmlns="http://www.w3.org/2000/svg">
<mask id="mask0_1_1193" style="mask-type:alpha" maskUnits="userSpaceOnUse" x="0" y="0" width="60" height="60">
<rect width="60" height="60" fill="#D9D9D9"/>
</mask>
<g mask="url(#mask0_1_1193)">
<path d="M21.577 50C18.3624 50 15.6293 48.8742 13.3776 46.6225C11.126 44.3708 10.0001 41.6377 10.0001 38.4231C10.0001 37.064 10.231 35.7467 10.6926 34.4713C11.1539 33.1954 11.8205 32.0335 12.6926 30.9856L21.4714 20.4425L16.2739 10H43.7264L38.5289 20.4425L47.3076 30.9856C48.1797 32.0335 48.8464 33.1954 49.3076 34.4713C49.7693 35.7467 50.0001 37.064 50.0001 38.4231C50.0001 41.6377 48.872 44.3708 46.6157 46.6225C44.3591 48.8742 41.6282 50 38.4232 50H21.577ZM30.0001 38.7019C28.8814 38.7019 27.9287 38.3085 27.142 37.5219C26.3549 36.7348 25.9614 35.7821 25.9614 34.6638C25.9614 33.545 26.3549 32.5921 27.142 31.805C27.9287 31.0183 28.8814 30.625 30.0001 30.625C31.1189 30.625 32.0716 31.0183 32.8582 31.805C33.6453 32.5921 34.0389 33.545 34.0389 34.6638C34.0389 35.7821 33.6453 36.7348 32.8582 37.5219C32.0716 38.3085 31.1189 38.7019 30.0001 38.7019ZM23.7739 19.375H36.2739L39.6876 12.5H20.3126L23.7739 19.375ZM21.577 47.5H38.4232C40.9587 47.5 43.1053 46.6129 44.8632 44.8387C46.6212 43.065 47.5001 40.9265 47.5001 38.4231C47.5001 37.359 47.323 36.326 46.9689 35.3244C46.6147 34.3227 46.093 33.415 45.4039 32.6012L36.457 21.875H23.6057L14.6445 32.5863C13.9553 33.4004 13.4255 34.3108 13.0551 35.3175C12.6851 36.3237 12.5001 37.359 12.5001 38.4231C12.5001 40.9265 13.3872 43.065 15.1614 44.8387C16.9351 46.6129 19.0737 47.5 21.577 47.5Z" fill="#0166CC"/>
</g>
</svg>
