<svg width="60" height="60" viewBox="0 0 60 60" fill="none" xmlns="http://www.w3.org/2000/svg">
<mask id="mask0_1544_5264" style="mask-type:alpha" maskUnits="userSpaceOnUse" x="0" y="0" width="60" height="60">
<rect width="60" height="60" fill="#D9D9D9"/>
</mask>
<g mask="url(#mask0_1544_5264)">
<path d="M9.29742 52.5483L7.51367 50.7164L15.3068 42.9233C13.9385 41.5546 12.9041 40.1154 12.2037 38.6058C11.5033 37.0962 11.153 35.5562 11.153 33.9858C11.153 32.4696 11.4335 31.0256 11.9943 29.6539C12.5551 28.2823 13.3549 27.0931 14.3937 26.0864L17.0905 23.452L19.273 25.5864C19.3214 24.1252 19.613 22.7343 20.148 21.4139C20.6835 20.0931 21.4624 18.9375 22.4849 17.9471L25.1818 15.3127L27.3649 17.4471C27.4128 16.05 27.7149 14.7071 28.2712 13.4183C28.827 12.13 29.6162 10.9745 30.6387 9.95205L36.033 4.52393L37.8024 6.2933L35.1193 9.08643L35.9849 9.95205C37.2316 11.1987 38.1226 12.6427 38.658 14.2839C39.193 15.9248 39.3085 17.5881 39.0043 19.2739L50.6818 7.50018L52.4512 9.28392L40.8355 20.9614C42.5218 20.6893 44.1774 20.8289 45.8024 21.3802C47.4274 21.9314 48.8633 22.8304 50.1099 24.077L51.023 24.9427L53.7062 22.1489L55.4899 23.9327L50.1724 29.3608C49.182 30.425 48.0137 31.2271 46.6674 31.7671C45.3212 32.3071 43.9335 32.601 42.5043 32.6489L44.5905 34.7214L41.9562 37.3558C40.9337 38.3783 39.7597 39.1677 38.4343 39.7239C37.1089 40.2798 35.7155 40.5818 34.2543 40.6302L36.4993 42.8608L33.8024 45.5577C32.7541 46.606 31.5416 47.4081 30.1649 47.9639C28.7887 48.5202 27.3472 48.7983 25.8405 48.7983C24.456 48.7983 23.053 48.4641 21.6318 47.7958C20.2101 47.1275 18.7172 46.0883 17.153 44.6783L9.29742 52.5483ZM17.0905 41.077C18.2476 39.92 19.1178 38.7573 19.7012 37.5889C20.2845 36.4206 20.5762 35.2404 20.5762 34.0483C20.5762 32.8975 20.2845 31.7331 19.7012 30.5552C19.1178 29.3777 18.2476 28.1943 17.0905 27.0052C15.9655 28.1302 15.1091 29.2896 14.5212 30.4833C13.9328 31.6771 13.6387 32.8654 13.6387 34.0483C13.6387 35.2725 13.9328 36.4768 14.5212 37.6614C15.1091 38.8456 15.9655 39.9841 17.0905 41.077ZM25.903 46.3608C27.0955 46.3512 28.2864 46.0548 29.4755 45.4714C30.6643 44.8881 31.8212 44.0179 32.9462 42.8608C31.7574 41.6716 30.582 40.7935 29.4199 40.2264C28.2583 39.6589 27.102 39.3752 25.9512 39.3752C24.7687 39.3752 23.5885 39.6773 22.4105 40.2814C21.2326 40.8856 20.0491 41.7823 18.8599 42.9714C19.9849 44.0964 21.142 44.9425 22.3312 45.5096C23.5203 46.0771 24.711 46.3608 25.903 46.3608ZM25.1818 32.9377C26.3389 31.7485 27.2091 30.5675 27.7924 29.3946C28.3758 28.2212 28.6674 27.0593 28.6674 25.9089C28.6674 24.7164 28.3758 23.5337 27.7924 22.3608C27.2091 21.1879 26.3389 20.0229 25.1818 18.8658C24.0568 19.9587 23.2003 21.0998 22.6124 22.2889C22.0241 23.4777 21.7299 24.6843 21.7299 25.9089C21.7299 27.0914 22.0241 28.2773 22.6124 29.4664C23.2003 30.6556 24.0568 31.8127 25.1818 32.9377ZM34.0568 38.1733C35.2814 38.1733 36.4778 37.8791 37.6462 37.2908C38.8141 36.7029 39.9287 35.8464 40.9899 34.7214C39.8649 33.5323 38.7262 32.6539 37.5737 32.0864C36.4216 31.5193 35.2653 31.2358 34.1049 31.2358C32.9449 31.2358 31.7703 31.5379 30.5812 32.142C29.392 32.7462 28.2028 33.6429 27.0137 34.8321C28.1066 35.925 29.2555 36.755 30.4605 37.3221C31.666 37.8896 32.8647 38.1733 34.0568 38.1733ZM33.288 24.9427C34.413 23.8498 35.2568 22.7087 35.8193 21.5196C36.3818 20.3304 36.663 19.1235 36.663 17.8989C36.663 16.6843 36.3818 15.4802 35.8193 14.2864C35.2568 13.0923 34.4289 11.9327 33.3355 10.8077C32.2105 11.9327 31.3541 13.0923 30.7662 14.2864C30.1778 15.4802 29.8837 16.6685 29.8837 17.8514C29.8837 19.0756 30.1697 20.2823 30.7418 21.4714C31.3143 22.6606 32.163 23.8177 33.288 24.9427ZM42.148 30.1639C43.331 30.1639 44.5193 29.8698 45.713 29.2814C46.9072 28.6931 48.0828 27.8206 49.2399 26.6639C48.0412 25.5389 46.8447 24.6927 45.6505 24.1252C44.4568 23.5577 43.2685 23.2739 42.0855 23.2739C40.903 23.2839 39.7253 23.5806 38.5524 24.1639C37.3791 24.7473 36.2139 25.6014 35.0568 26.7264C36.2139 27.8831 37.3895 28.7477 38.5837 29.3202C39.7774 29.8923 40.9655 30.1735 42.148 30.1639Z" fill="#0166CC"/>
</g>
</svg>
